<svg xmlns="http://www.w3.org/2000/svg" version="1.1" xmlns:xlink="http://www.w3.org/1999/xlink" xmlns:svgjs="http://svgjs.dev/svgjs" width="2000" height="1247" viewBox="0 0 2000 1247"><g transform="matrix(1,0,0,1,-1.2121212121211329,0.504858299595071)"><svg viewBox="0 0 396 247" data-background-color="#f9f7f4" preserveAspectRatio="xMidYMid meet" height="1247" width="2000" xmlns="http://www.w3.org/2000/svg" xmlns:xlink="http://www.w3.org/1999/xlink"><g id="tight-bounds" transform="matrix(1,0,0,1,0.2400000000000091,-0.09999999999999432)"><svg viewBox="0 0 395.52 247.2" height="247.2" width="395.52"><g><svg></svg></g><g><svg viewBox="0 0 395.52 247.2" height="247.2" width="395.52"><g transform="matrix(1,0,0,1,75.54432,62.10807552482715)"><svg viewBox="0 0 244.43135999999998 122.98384895034569" height="122.98384895034569" width="244.43135999999998"><g><svg viewBox="0 0 244.43135999999998 122.98384895034569" height="122.98384895034569" width="244.43135999999998"><g><svg viewBox="0 0 244.43135999999998 122.98384895034569" height="122.98384895034569" width="244.43135999999998"><g><svg viewBox="0 0 244.43135999999998 122.98384895034569" height="122.98384895034569" width="244.43135999999998"><g id="textblocktransform"><svg viewBox="0 0 244.43135999999998 122.98384895034569" height="122.98384895034569" width="244.43135999999998" id="textblock"><g><svg viewBox="0 0 244.43135999999998 122.98384895034569" height="122.98384895034569" width="244.43135999999998"><g transform="matrix(1,0,0,1,0,0)"><svg width="244.43135999999998" viewBox="-0.81 -37.57 77.69 39.08" height="122.98384895034569" data-palette-color="#2c7865"><path d="M33.13-36.79L37.35-36.79 38.16-36.82Q38.4-36.69 38.53-36.21L38.53-36.21 37.79-34.77 37.79-34.79 36.21-31.74Q32.62-25.1 31.57-22.88L31.57-22.88 30.74-21.29Q29.39-18.7 26.17-12.16L26.17-12.16Q26.12-11.33 26.12-9.67L26.12-9.67 26.12 0.42Q26 0.81 25.63 0.81L25.63 0.81 11.65 0.9Q11.11 0.22 11.11-0.66L11.11-0.66 11.16-3.71 11.16-4.42 11.18-5.15 11.21-6.93Q11.21-12.04 8.59-17.87L8.59-17.87Q8.03-19.09 6.96-21.31L6.96-21.31 3.32-28.59Q3.17-28.86 2.54-30.08 1.9-31.3 1.15-32.71L1.15-32.71 1.15-32.69Q-0.81-35.67-0.81-36.65L-0.81-36.65Q-0.81-36.77-0.02-36.77L-0.02-36.77 6.25-36.77Q11.45-36.77 14.09-36.69L14.09-36.69Q14.87-36.55 18.16-24.95L18.16-24.95 19.26-21.07Q21.75-27.71 24.51-36.65L24.51-36.65Q24.54-36.84 28.13-36.84L28.13-36.84 31.25-36.84Q32.37-36.84 33.13-36.79L33.13-36.79ZM76.58-1.76L76.58-1.42Q76.58-1.39 76.61-1.32L76.61-1.32 76.54-1.12 76.56-1.12 76.56-1.07Q76.56-1.03 76.54-1L76.54-1Q75.39-0.12 70.93 0.61 66.48 1.34 64.8 1.34 63.13 1.34 62.94 1.32L62.94 1.32 61.69 1.39Q59.74 1.51 59.45 1.51L59.45 1.51Q49.19 1.51 43.83-3.64 38.47-8.79 38.47-18.27 38.47-27.76 44.25-32.67 50.02-37.57 59.89-37.57L59.89-37.57Q61.69-37.57 64.34-37.23 66.99-36.89 68.99-36.23L68.99-36.23Q71.43-35.23 73.18-33.34 74.92-31.45 75.46-29.15L75.46-29.15Q75.56-28.52 75.69-27.16 75.83-25.81 75.93-25.17L75.93-25.17Q75.78-24.8 74.88-24.8L74.88-24.8 62.47-25.02Q62.38-25.07 62.23-25.68L62.23-25.68 62.23-25.61Q61.79-27.59 60.5-28.03L60.5-28.03Q59.91-28.25 58.96-28.25 58.01-28.25 57.16-27.93 56.32-27.61 55.76-27.05 55.2-26.49 54.76-25.74 54.32-25 54.1-24.15 53.88-23.29 53.71-22.39 53.54-21.48 53.5-20.61 53.46-19.73 53.43-18.92 53.39-18.12 53.42-17.59 53.44-17.07 53.44-16.89L53.44-16.89 53.44-15.21Q53.44-13.62 53.59-13 53.73-12.38 53.93-11.63 54.12-10.89 54.39-10.5L54.39-10.5Q55.34-9.16 56.46-8.63 57.57-8.11 59.92-8.11 62.28-8.11 64.4-8.81L64.4-8.81 64.52-12.67 62.77-12.82 62.52-12.7 59.98-12.7 59.69-12.67 59.08-13.31Q59.03-13.72 59.03-14.62L59.03-14.62 59.03-20.09Q59.03-20.51 59.62-20.92L59.62-20.92 61.25-20.92Q63.38-20.92 66.01-20.87L66.01-20.87 66.26-20.87Q68.65-20.83 69.89-20.83L69.89-20.83 71.36-20.83 71.92-20.85Q76.27-20.85 76.88-20.29L76.88-20.29 76.58-1.76Z" opacity="1" transform="matrix(1,0,0,1,0,0)" fill="#2c7865" class="wordmark-text-0" data-fill-palette-color="primary" id="text-0"></path></svg></g></svg></g></svg></g></svg></g></svg></g></svg></g></svg></g><g><path d="M0 123.6c0-68.262 55.338-123.6 123.6-123.6 39.601 0 74.853 18.624 97.473 47.591l-7.139 0c-21.656-25.71-54.087-42.046-90.334-42.046-65.2 0-118.055 52.855-118.055 118.055 0 65.2 52.855 118.055 118.055 118.055 36.247 0 68.678-16.335 90.334-42.046h7.139c-22.621 28.967-57.872 47.591-97.473 47.591-68.262 0-123.6-55.338-123.6-123.6z" fill="#2c7865" stroke="transparent" data-fill-palette-color="tertiary"></path></g></svg></g><defs></defs></svg><rect width="395.52" height="247.2" fill="none" stroke="none" visibility="hidden"></rect></g></svg></g></svg>